<svg viewBox="-2 -2 276 276" width="256" height="256" xmlns="http://www.w3.org/2000/svg">
  <path fill="#00ffff" d="M128 0c-11.395 27.937-18.313 46.237-31 73.344 7.779 8.245 17.338 17.812 32.844 28.656-16.67-6.86-28.034-13.729-36.531-20.875C77.076 115.005 51.622 163.246 0 256c40.563-23.418 72.008-37.862 101.313-43.375-1.254-5.404-1.924-11.278-1.875-17.375l.031-1.281c.644-25.994 14.17-45.982 30.188-44.625 16.018 1.357 28.487 23.537 27.843 49.531-.121 4.896-.69 9.601-1.656 13.969C184.833 218.517 215.982 232.897 256 256c-7.892-14.53-14.961-27.62-21.688-40.094-10.596-8.213-21.643-18.897-44.187-30.469 15.496 4.027 26.602 8.683 35.250 13.875C156.98 71.973 151.454 55.04 128 0z"/>
</svg>
