<?xml version="1.0" encoding="UTF-8"?>
<svg viewBox="0 0 400 400" xmlns="http://www.w3.org/2000/svg">
  <path fill-rule="evenodd" fill="#fff" d="M13.83,315.949c0.043,-16.447 14.024,-39.408 33.889,-60.268c13.276,-13.941 26.759,-26.178 56.15,-51.238c-20.33,-11.156 -51.95,-24.615 -67.815,-42.242c-5.87,-6.522 -16.511,-21.298 -14.447,-41.039c4.206,-40.236 53.869,-101.298 124.46,-114.207c23.488,-4.296 50.455,-1.195 72.65,8.783c69.629,31.304 154.782,109.073 165.259,147.046c3.688,13.366 2.979,34.671 -3.379,46.545c-7.879,14.716 -35.156,44.606 -72.475,75.449c-58.556,48.394 -140.612,100.359 -201.881,109.103c-19.798,2.826 -40.024,-0.121 -54.218,-8.13c-22.209,-12.532 -29.581,-29.262 -32.172,-34.277c-6.891,-13.334 -6.036,-30.228 -6.021,-35.525Z M193.08,146.92c22.87,3.18 42.58,-5.98 45.66,-28.56c2.35,-17.2 -23.98,-35.99 -39.8,-40.33c-13.22,-3.62 -41.91,1.04 -43.84,26.03c-2.01,25.99 24.65,41.0 37.99,42.85Z"/>
</svg>
